<svg width="815" height="570" viewBox="0 0 815 570" fill="none" xmlns="http://www.w3.org/2000/svg">
<rect width="815" height="570" fill="#E5E5E5"/>
<path d="M273.219 178.719V386H239.469V292.625H161.281V269.562H239.469V178.719H273.219ZM115.438 178.719H149.75V386H115.438V178.719Z" fill="black"/>
<path d="M398.5 285C398.5 391.286 312.12 477.5 205.5 477.5C98.8803 477.5 12.5 391.286 12.5 285C12.5 178.714 98.8803 92.5 205.5 92.5C312.12 92.5 398.5 178.714 398.5 285Z" stroke="black" stroke-width="25"/>
<mask id="path-3-inside-1" fill="white">
<path d="M359.038 171.726C383.431 134.803 419.146 106.783 460.846 91.8549C502.547 76.9265 547.993 75.891 590.394 88.9029C632.795 101.915 669.874 128.276 696.09 164.046C722.305 199.816 736.25 243.075 735.839 287.359C735.429 331.642 720.686 374.571 693.813 409.732C666.941 444.892 629.381 470.396 586.748 482.431C544.115 494.466 498.697 492.387 457.282 476.504C415.867 460.621 380.679 431.787 356.975 394.311L530.5 285L359.038 171.726Z"/>
</mask>
<path d="M359.038 171.726C383.431 134.803 419.146 106.783 460.846 91.8549C502.547 76.9265 547.993 75.891 590.394 88.9029C632.795 101.915 669.874 128.276 696.09 164.046C722.305 199.816 736.25 243.075 735.839 287.359C735.429 331.642 720.686 374.571 693.813 409.732C666.941 444.892 629.381 470.396 586.748 482.431C544.115 494.466 498.697 492.387 457.282 476.504C415.867 460.621 380.679 431.787 356.975 394.311L530.5 285L359.038 171.726Z" fill="black" stroke="black" stroke-width="50" mask="url(#path-3-inside-1)"/>
<path d="M552.901 284.497L390.941 391.787L389.37 179.616L552.901 284.497Z" fill="black"/>
<path d="M582.219 201.781C581.281 201.406 580.156 200.75 578.844 199.812C577.531 198.875 575.656 198.031 573.219 197.281C570.781 196.344 567.688 195.594 563.938 195.031C560.188 194.469 555.406 194.375 549.594 194.75V166.344C557.844 166.531 566.188 167.469 574.625 169.156C583.25 170.656 590.188 173.094 595.438 176.469C594.312 178.906 593 181.625 591.5 184.625C590 187.438 588.594 190.156 587.281 192.781C585.969 195.219 584.844 197.281 583.906 198.969C582.969 200.656 582.406 201.594 582.219 201.781ZM485.188 224.281C485.188 216.031 486.594 208.625 489.406 202.062C492.219 195.5 495.969 189.781 500.656 184.906C505.531 179.844 511.156 175.906 517.531 173.094C524.094 170.094 530.938 168.125 538.062 167.188V196.719C532.062 198.781 527.094 202.438 523.156 207.688C519.219 212.75 517.25 217.906 517.25 223.156C517.25 230.469 519.219 236.375 523.156 240.875C527.094 245.375 532.062 249.312 538.062 252.688V284.75C531.875 281.75 525.688 278.562 519.5 275.188C513.312 271.625 507.688 267.5 502.625 262.812C497.562 258.125 493.344 252.688 489.969 246.5C486.781 240.312 485.188 232.906 485.188 224.281ZM489.688 339.031C492.312 340.531 495.594 342.031 499.531 343.531C503.656 344.844 507.875 346.156 512.188 347.469C516.5 348.594 520.812 349.531 525.125 350.281C529.438 351.031 533.469 351.406 537.219 351.406H538.062V378.125H537.5C533 378.125 528.312 377.844 523.438 377.281C518.75 376.906 513.969 376.156 509.094 375.031C504.219 373.906 499.531 372.406 495.031 370.531C490.719 368.469 486.969 366.031 483.781 363.219L489.688 339.031ZM549.594 258.312C555.781 261.125 562.062 264.125 568.438 267.312C575 270.5 580.906 274.438 586.156 279.125C591.406 283.625 595.719 289.156 599.094 295.719C602.469 302.281 604.156 310.438 604.156 320.188C604.156 326.938 602.844 333.5 600.219 339.875C597.781 346.25 594.219 352.062 589.531 357.312C585.031 362.375 579.406 366.688 572.656 370.25C565.906 373.812 558.219 376.156 549.594 377.281V350.281C564.969 346.531 572.656 336.312 572.656 319.625C572.656 313.062 570.5 307.625 566.188 303.312C561.875 299 556.344 294.969 549.594 291.219V258.312Z" fill="white"/>
</svg>
